<svg width="32" height="32" viewBox="0 0 32 32" fill="none"
    xmlns="http://www.w3.org/2000/svg">
    <path fill-rule="evenodd" clip-rule="evenodd" d="M8 5H25.5V22.8095L21.5 27H8V20.1905C5.79086 20.1905 4 18.3143 4 16C4 13.6857 5.79086 11.8095 8 11.8095V5Z" fill="white"/>
    <path d="M25.7699 4.39001H7.88991C7.68743 4.39264 7.49413 4.47493 7.35189 4.61905C7.20964 4.76317 7.12989 4.95752 7.12991 5.16001V11.16C5.92497 11.3388 4.82439 11.9446 4.02875 12.8669C3.23312 13.7893 2.79541 14.9669 2.79541 16.185C2.79541 17.4031 3.23312 18.5807 4.02875 19.5031C4.82439 20.4255 5.92497 21.0313 7.12991 21.21V26.87C7.12991 27.0716 7.20998 27.2649 7.35251 27.4074C7.49503 27.5499 7.68834 27.63 7.88991 27.63H21.3199C21.4159 27.6254 21.5105 27.6052 21.5999 27.57L21.7199 27.5L21.8399 27.42L26.2899 23.17C26.3289 23.124 26.3625 23.0737 26.3899 23.02L26.4599 22.93C26.455 22.9069 26.455 22.8831 26.4599 22.86C26.4824 22.7881 26.4991 22.7146 26.5099 22.64V5.16001C26.5101 4.96089 26.4331 4.76945 26.2951 4.62588C26.1571 4.48231 25.9689 4.39777 25.7699 4.39001ZM22.0799 25.07V23.36H23.8699L22.0799 25.07ZM7.12991 12.67C7.37995 12.6181 7.63454 12.5913 7.88991 12.59C8.1453 12.5909 8.39994 12.6177 8.64991 12.67C9.45037 12.8421 10.1676 13.2834 10.6822 13.9203C11.1967 14.5572 11.4773 15.3513 11.4773 16.17C11.4773 16.9888 11.1967 17.7828 10.6822 18.4197C10.1676 19.0566 9.45037 19.4979 8.64991 19.67C8.40029 19.7258 8.14564 19.7559 7.88991 19.76C7.63421 19.7553 7.37962 19.7252 7.12991 19.67C6.32945 19.4979 5.61217 19.0566 5.09766 18.4197C4.58315 17.7828 4.3025 16.9888 4.3025 16.17C4.3025 15.3513 4.58315 14.5572 5.09766 13.9203C5.61217 13.2834 6.32945 12.8421 7.12991 12.67ZM24.9999 7.78001H8.64991V5.92001H24.9999V7.78001ZM20.5499 26.08H8.64991V21.19C9.82269 20.9794 10.8841 20.3632 11.6486 19.4492C12.4131 18.5352 12.8319 17.3816 12.8319 16.19C12.8319 14.9985 12.4131 13.8448 11.6486 12.9308C10.8841 12.0168 9.82269 11.4006 8.64991 11.19V9.30001H24.9999V21.84H21.3199C21.1183 21.84 20.925 21.9201 20.7825 22.0626C20.64 22.2051 20.5599 22.3985 20.5599 22.6L20.5499 26.08Z" fill="#707070"/>
    <path d="M15.0002 14.55H22.1502C22.3518 14.55 22.5451 14.47 22.6876 14.3274C22.8302 14.1849 22.9102 13.9916 22.9102 13.79C22.9102 13.5885 22.8302 13.3952 22.6876 13.2526C22.5451 13.1101 22.3518 13.03 22.1502 13.03H15.0002C14.9004 13.03 14.8016 13.0497 14.7094 13.0879C14.6172 13.1261 14.5334 13.1821 14.4628 13.2526C14.3923 13.3232 14.3363 13.407 14.2981 13.4992C14.2599 13.5914 14.2402 13.6902 14.2402 13.79C14.2402 13.8898 14.2599 13.9887 14.2981 14.0809C14.3363 14.1731 14.3923 14.2569 14.4628 14.3274C14.5334 14.398 14.6172 14.454 14.7094 14.4922C14.8016 14.5304 14.9004 14.55 15.0002 14.55Z" fill="#707070"/>
    <path d="M22.9 19C22.9 18.7975 22.8202 18.6031 22.678 18.459C22.5358 18.3149 22.3425 18.2326 22.14 18.23H15C14.7966 18.2326 14.6022 18.3145 14.4584 18.4584C14.3145 18.6022 14.2326 18.7966 14.23 19C14.2326 19.2025 14.3149 19.3958 14.459 19.538C14.6031 19.6802 14.7975 19.76 15 19.76H22.15C22.3498 19.7574 22.5406 19.6761 22.6809 19.5339C22.8213 19.3916 22.9 19.1998 22.9 19Z" fill="#707070"/>
    <path d="M10.1398 14.44C9.99578 14.2983 9.80184 14.2189 9.5998 14.2189C9.39777 14.2189 9.20383 14.2983 9.0598 14.44L8.6498 14.87L7.8898 15.66L7.2798 16.3L7.1298 16.18L6.2198 15.46C6.14265 15.39 6.05194 15.3366 5.95329 15.3032C5.85465 15.2697 5.75018 15.2569 5.64638 15.2655C5.54257 15.2741 5.44164 15.304 5.34986 15.3532C5.25808 15.4025 5.1774 15.4701 5.11284 15.5518C5.04827 15.6335 5.0012 15.7277 4.97454 15.8284C4.94787 15.9291 4.9422 16.0342 4.95785 16.1371C4.97351 16.2401 5.01017 16.3388 5.06555 16.427C5.12094 16.5152 5.19386 16.5911 5.2798 16.65L6.8698 17.92C6.94895 17.9769 7.03673 18.0208 7.1298 18.05C7.19947 18.0597 7.27014 18.0597 7.3398 18.05C7.54636 18.0491 7.74416 17.9664 7.8898 17.82L8.6498 17.03L10.1598 15.47C10.2843 15.3261 10.3511 15.1413 10.3474 14.9511C10.3437 14.7609 10.2698 14.5789 10.1398 14.44Z" fill="#17AA83"/>
</svg>
    