<svg width="120" height="120" viewBox="0 0 120 120" fill="none"
    xmlns="http://www.w3.org/2000/svg">
    <path d="M110 100.76C114.91 95.2199 115.31 87.1899 114.08 79.8899C112.44 70.1299 109.48 65.7199 104.08 60.6099C99.0802 55.8599 92.7002 53.1699 86.8502 49.7399C80.3202 45.8999 75.5102 40.3299 70.0002 35.1899C64.4902 30.0499 58.2102 25.0999 50.7702 23.5799C42.8602 21.9599 34.3602 24.4999 28.1602 29.6599C21.9986 34.9937 17.9011 42.3182 16.5802 50.3599C15.9002 54.1999 15.7702 58.1799 14.4502 61.8499C12.0502 68.5599 6.00017 73.5499 4.06017 80.4199C3.38543 83.2063 3.1726 86.0846 3.43017 88.9399C3.68017 93.0399 4.43017 97.3999 7.37017 100.32" fill="#DCF7EC"/>
    <path d="M79.6202 61.6199C77.6198 58.7475 76.3293 55.4415 75.8547 51.9734C75.3802 48.5054 75.735 44.9742 76.8902 41.6699C77.8902 42.6699 78.9802 43.6699 80.0702 44.5699C79.1833 48.1207 79.3858 51.8562 80.6511 55.2903C81.9165 58.7245 84.1862 61.6983 87.1649 63.8247C90.1437 65.9511 93.6935 67.1317 97.3524 67.2129C101.011 67.2941 104.61 66.2721 107.68 64.2799C108.491 65.2897 109.23 66.3557 109.89 67.4699C105.072 70.6152 99.2202 71.7634 93.5711 70.6717C87.922 69.58 82.9191 66.3339 79.6202 61.6199Z" fill="#DCF7EC"/>
    <path d="M87.0002 56.4701C85.2946 54.0341 84.4757 51.0869 84.6802 48.1201C85.3302 48.5601 85.9902 48.9901 86.6802 49.3901C92.5302 52.8201 98.9502 55.5201 103.91 60.2701L104.11 60.4601C101.268 62.0218 97.9492 62.4783 94.7911 61.7418C91.6329 61.0053 88.8583 59.1279 87.0002 56.4701Z" fill="#DCF7EC"/>
    <path d="M72.7702 66.3999C69.6437 61.9131 67.7807 56.6684 67.3761 51.2148C66.9715 45.7611 68.0401 40.299 70.4702 35.3999C71.3002 36.1799 72.1102 36.9799 72.9202 37.7699C70.5258 43.0867 69.9001 49.0313 71.1349 54.7301C72.3697 60.4289 75.4 65.5813 79.7804 69.4301C84.1608 73.2789 89.6603 75.6211 95.4706 76.1125C101.281 76.6038 107.096 75.2184 112.06 72.1599C112.4 73.1599 112.72 74.1599 113.06 75.3399C106.444 79.1617 98.6351 80.3638 91.1758 78.7086C83.7165 77.0534 77.149 72.6614 72.7702 66.3999Z" fill="#DCF7EC"/>
    <path d="M68.5602 69.3301C64.7773 63.8894 62.5861 57.5017 62.2328 50.8845C61.8795 44.2674 63.3781 37.6827 66.5602 31.8701C67.6935 32.8435 68.8002 33.8434 69.8802 34.8701L70.4802 35.4601C67.5905 41.3198 66.6602 47.9529 67.8264 54.3814C68.9925 60.8099 72.1934 66.6936 76.9572 71.1649C81.7209 75.6362 87.7953 78.4585 94.2847 79.2156C100.774 79.9728 107.335 78.6247 113 75.3701C113.32 76.6501 113.61 78.0301 113.87 79.5501C113.93 79.9101 113.98 80.2801 114.03 80.6401C106.363 84.5617 97.5352 85.5768 89.1777 83.498C80.8202 81.4192 73.497 76.3868 68.5602 69.3301Z" fill="#B6EFDA"/>
    <path d="M75.41 64.5498C72.7221 60.6848 71.0801 56.19 70.6438 51.5026C70.2075 46.8151 70.9916 42.0945 72.92 37.7998C74.25 39.0998 75.56 40.3998 76.92 41.6698C75.3963 46.0322 75.2769 50.7622 76.5788 55.1959C77.8806 59.6295 80.5382 63.5442 84.1786 66.3902C87.8189 69.2363 92.2591 70.8709 96.8759 71.0645C101.493 71.2581 106.054 70.0011 109.92 67.4698C110.795 68.969 111.522 70.5498 112.09 72.1898C106.154 75.8311 99.0515 77.0681 92.234 75.6481C85.4165 74.2281 79.3986 70.2582 75.41 64.5498Z" fill="#B6EFDA"/>
    <path d="M82.8002 59.4001C81.3119 57.2668 80.2981 54.8393 79.8271 52.2811C79.3562 49.7229 79.4391 47.0935 80.0702 44.5701C81.5387 45.8437 83.0814 47.0292 84.6902 48.1201C84.534 50.4699 85.0136 52.8185 86.0786 54.9189C87.1437 57.0193 88.7549 58.7941 90.7429 60.0567C92.7309 61.3193 95.0222 62.023 97.3762 62.094C99.7302 62.165 102.06 61.6006 104.12 60.4601C105.386 61.6576 106.575 62.9335 107.68 64.2801C103.707 66.8417 98.8958 67.7644 94.2567 66.8544C89.6177 65.9445 85.5115 63.2728 82.8002 59.4001Z" fill="#B6EFDA"/>
    <path d="M8.68018 101.18C8.68018 101.18 16.2002 79.4299 50.2802 87.4299C84.3602 95.4299 75.0002 100.64 95.4002 95.3799C112.26 91.0399 116.65 101.18 116.65 101.18" fill="#FF792F"/>
    <path d="M21.2202 100.67H116.65" stroke="#707070" stroke-width="2" stroke-miterlimit="10" stroke-linecap="round"/>
    <path d="M14.5498 100.67H17.0298" stroke="#707070" stroke-width="2" stroke-miterlimit="10" stroke-linecap="round"/>
    <path d="M3.93994 100.67H10.2599" stroke="#707070" stroke-width="2" stroke-miterlimit="10" stroke-linecap="round"/>
    <path d="M86.5702 21.3098C86.5702 21.3098 90.2402 19.9998 90.3902 22.4798C90.51 23.3707 90.3876 24.2774 90.0356 25.1045C89.6836 25.9316 89.1152 26.6485 88.3902 27.1798C87.3902 27.6598 85.7502 28.0498 85.1702 29.8298C84.7502 31.1198 84.4202 32.0698 84.2702 32.4898C84.2459 32.5577 84.2479 32.6322 84.2756 32.6988C84.3033 32.7653 84.3549 32.8192 84.4202 32.8498L85.9802 33.6098C86.0729 33.6518 86.1733 33.6741 86.2751 33.6755C86.3769 33.6769 86.4779 33.6573 86.5717 33.6179C86.6656 33.5784 86.7503 33.5201 86.8206 33.4464C86.8909 33.3728 86.9452 33.2854 86.9802 33.1898C87.3502 32.1098 88.2402 30.2998 89.9802 29.9198C90.909 29.6223 91.7701 29.1446 92.5142 28.5141C93.2583 27.8835 93.8707 27.1124 94.3166 26.245C94.7624 25.3775 95.0328 24.4306 95.1123 23.4585C95.1919 22.4865 95.079 21.5082 94.7802 20.5798C94.4167 19.6142 93.8623 18.7317 93.1502 17.985C92.4381 17.2383 91.5828 16.6428 90.6354 16.234C89.6881 15.8252 88.6681 15.6115 87.6363 15.6056C86.6045 15.5997 85.5821 15.8018 84.6302 16.1998C84.3294 16.4062 84.0998 16.7005 83.9727 17.0424C83.8456 17.3843 83.8273 17.7571 83.9202 18.1098C84.2402 19.3798 84.2802 21.8698 86.5702 21.3098Z" fill="#FED700"/>
    <path d="M85.8547 37.6681C86.0503 36.5081 85.3921 35.43 84.3845 35.2602C83.377 35.0903 82.4017 35.893 82.2062 37.053C82.0106 38.213 82.6688 39.291 83.6763 39.4609C84.6838 39.6308 85.6591 38.8281 85.8547 37.6681Z" fill="#FED700"/>
    <path d="M96.2799 32.41C96.2799 32.41 99.0499 32.69 98.3999 34.34C98.2015 34.9542 97.8399 35.5029 97.3537 35.9274C96.8676 36.3519 96.2752 36.6362 95.6399 36.75C94.8699 36.75 93.6399 36.51 92.7399 37.49C92.0799 38.19 91.5699 38.7 91.3499 38.93C91.3154 38.9685 91.2964 39.0184 91.2964 39.07C91.2964 39.1217 91.3154 39.1715 91.3499 39.21L92.1299 40.21C92.1787 40.2653 92.2387 40.3097 92.3059 40.34C92.3732 40.3704 92.4461 40.3861 92.5199 40.3861C92.5936 40.3861 92.6666 40.3704 92.7338 40.34C92.8011 40.3097 92.8611 40.2653 92.9099 40.21C93.2697 39.7762 93.7335 39.4404 94.2581 39.2341C94.7826 39.0278 95.3509 38.9576 95.9099 39.03C96.6043 39.1271 97.3112 39.0856 97.9895 38.908C98.6679 38.7304 99.3044 38.4202 99.8622 37.9953C100.42 37.5705 100.888 37.0393 101.24 36.4325C101.591 35.8257 101.819 35.1553 101.91 34.46C101.971 33.7235 101.883 32.9823 101.651 32.2806C101.419 31.579 101.048 30.9314 100.559 30.3768C100.071 29.8221 99.4755 29.3718 98.8089 29.0527C98.1423 28.7337 97.4182 28.5525 96.6799 28.52C96.4323 28.5675 96.2046 28.6882 96.0263 28.8665C95.8481 29.0448 95.7274 29.2724 95.6799 29.52C95.3599 30.45 94.6299 32.08 96.2799 32.41Z" fill="#FED700"/>
    <path d="M90.8157 42.7696C91.2959 42.0811 91.2004 41.1848 90.6024 40.7678C90.0044 40.3508 89.1304 40.571 88.6502 41.2596C88.17 41.9481 88.2655 42.8444 88.8635 43.2614C89.4615 43.6784 90.3355 43.4582 90.8157 42.7696Z" fill="#FED700"/>
    <path d="M16.3198 57.4502C16.3198 57.4502 9.16977 50.1702 7.66977 47.7002C5.94977 44.8702 16.6698 40.9302 16.6698 40.9302L19.7698 44.6702C20.3266 43.9473 21.003 43.325 21.7698 42.8302C21.9595 42.7184 22.1696 42.6457 22.3879 42.6164C22.6061 42.5871 22.828 42.6017 23.0405 42.6595C23.253 42.7173 23.4517 42.817 23.6251 42.9528C23.7984 43.0886 23.9428 43.2577 24.0498 43.4502L23.4198 44.1302C23.4198 44.1302 20.4198 48.1302 21.2198 49.9102C22.0198 51.6902 23.4898 54.0002 23.4898 54.0002L20.9998 56.2002L16.3198 57.4502Z" fill="#E89D89"/>
    <path d="M25.5 48.6201C25.5 48.6201 17.63 55.8701 12 58.0801C12 58.0801 25.89 84.7601 32.65 85.2501C34.6791 85.3526 36.7039 84.9782 38.5621 84.1567C40.4203 83.3353 42.0601 82.0898 43.35 80.5201V99.6801H91.25L89.25 91.8901C89.25 91.8901 97 82.1901 96 75.8001C95.1515 70.37 93.5107 65.0937 91.13 60.1401C89.2182 56.4491 86.2341 53.4231 82.57 51.4601C76.64 48.2801 65.57 46.0601 54.36 49.7301C54.36 49.7301 40.22 53.8601 38.21 58.0901C36.73 61.2101 34.71 64.9701 34.71 64.9701L25.5 48.6201Z" fill="#17AA83"/>
    <path d="M19.8801 38.8501L7.44006 50.3401C7.13328 50.6307 6.95218 51.0296 6.93537 51.4518C6.91855 51.874 7.06736 52.2861 7.35006 52.6001L7.60006 52.8701C7.88416 53.1878 8.28266 53.3799 8.70818 53.4043C9.13371 53.4287 9.55154 53.2833 9.87006 53.0001L22.3001 41.4801C21.3246 40.7753 20.5015 39.8807 19.8801 38.8501Z" fill="#707070"/>
    <path d="M27.5998 25.2901C26.0077 25.2719 24.4396 25.6802 23.0586 26.4726C21.6775 27.265 20.5337 28.4126 19.7459 29.7963C18.9581 31.18 18.5551 32.7494 18.5786 34.3415C18.6022 35.9336 19.0514 37.4903 19.8798 38.8501L20.9398 37.8501C20.2807 36.7251 19.9354 35.444 19.9398 34.1401C19.9533 32.34 20.613 30.6045 21.7987 29.2499C22.9844 27.8954 24.6173 27.0118 26.3998 26.7601C26.7774 26.7045 27.1582 26.6745 27.5398 26.6701C28.576 26.6877 29.5973 26.9192 30.5398 27.3501C30.9428 27.5364 31.3306 27.7537 31.6998 28.0001C33.052 28.8992 34.0773 30.2113 34.6229 31.7407C35.1684 33.2702 35.205 34.935 34.727 36.4869C34.2491 38.0388 33.2823 39.3946 31.9708 40.3521C30.6594 41.3096 29.0735 41.8176 27.4498 41.8001H26.9398C26.3134 41.7542 25.6953 41.6299 25.0998 41.4301C24.7183 41.2781 24.3503 41.0941 23.9998 40.8801C23.786 40.7619 23.579 40.6317 23.3798 40.4901L22.3098 41.4901C23.4506 42.3131 24.7694 42.8552 26.1591 43.0725C27.5489 43.2898 28.9702 43.1761 30.3078 42.7407C31.6453 42.3053 32.8612 41.5604 33.8566 40.5665C34.852 39.5727 35.5989 38.358 36.0365 37.0212C36.4742 35.6844 36.5902 34.2632 36.3751 32.8732C36.1601 31.4831 35.6201 30.1634 34.799 29.0213C33.9779 27.8792 32.8989 26.9469 31.6497 26.3004C30.4005 25.6538 29.0164 25.3111 27.6098 25.3001L27.5998 25.2901Z" fill="#707070"/>
    <path d="M20.9999 37.9301C20.9999 37.9301 20.9999 37.9301 20.9999 37.8701L19.9399 38.8701C20.5614 39.9007 21.3845 40.7953 22.3599 41.5001L23.4299 40.5001C22.4284 39.8474 21.5956 38.9666 20.9999 37.9301Z" fill="#707070"/>
    <path d="M21.0002 37.7798L20.9102 37.8698C20.9102 37.8698 20.9102 37.8698 20.9102 37.9298L21.0002 37.7798Z" fill="#78DFFF"/>
    <g opacity="0.5">
        <path opacity="0.5" d="M22.1799 28.9199C21.3169 29.7824 20.677 30.8421 20.3156 32.0074C19.9542 33.1728 19.8821 34.4086 20.1056 35.608C20.3292 36.8075 20.8416 37.9344 21.5985 38.8913C22.3555 39.8482 23.3342 40.6063 24.4499 41.0999V40.9699L22.1799 28.9199Z" fill="#78DFFF"/>
        <path opacity="0.5" d="M29.8799 41.38L27.0899 26.71C26.6824 26.7315 26.2775 26.7884 25.8799 26.88L28.6899 41.67C29.0932 41.6029 29.4909 41.506 29.8799 41.38Z" fill="#78DFFF"/>
        <path opacity="0.5" d="M32 40.2898C32.7958 39.7029 33.4683 38.9649 33.9789 38.118C34.4895 37.2711 34.8283 36.332 34.9759 35.3542C35.1236 34.3763 35.0772 33.379 34.8394 32.4192C34.6016 31.4593 34.177 30.5556 33.59 29.7598C32.4828 28.2427 30.8434 27.1998 29 26.8398L31.61 40.5698L32 40.2898Z" fill="#78DFFF"/>
        <path opacity="0.5" d="M24.4802 40.9999C24.5558 40.5815 24.7937 40.21 25.1422 39.9665C25.4907 39.7229 25.9213 39.6271 26.3402 39.6999L26.7002 39.7699C27.1105 39.8457 27.4753 40.0778 27.7178 40.4173C27.9603 40.7568 28.0615 41.1772 28.0002 41.5899V41.7299C28.2402 41.7299 28.4802 41.7299 28.7202 41.6699L25.8802 26.8799C24.858 27.105 23.8942 27.5409 23.0502 28.1599C22.7422 28.3919 22.4515 28.6459 22.1802 28.9199L24.4702 40.9199L24.4802 40.9999Z" fill="#9FEDFF"/>
        <path opacity="0.5" d="M26.7 39.7198L26.34 39.6498C26.129 39.6143 25.913 39.6211 25.7047 39.67C25.4963 39.7189 25.2998 39.8088 25.1266 39.9345C24.9535 40.0602 24.8071 40.2191 24.696 40.402C24.585 40.585 24.5116 40.7882 24.48 40.9998V41.1598C25.574 41.6277 26.7624 41.8331 27.95 41.7598V41.6198C28.0357 41.2022 27.9522 40.7676 27.7179 40.4114C27.4835 40.0552 27.1175 39.8065 26.7 39.7198Z" fill="#9FEDFF"/>
        <path opacity="0.5" d="M31.5699 40.5699L28.9999 26.8399C28.3847 26.7168 27.7562 26.6731 27.1299 26.7099L29.9199 41.3799C30.5019 41.1808 31.0564 40.9086 31.5699 40.5699Z" fill="#9FEDFF"/>
    </g>
    <path opacity="0.1" d="M43.3301 97.1299V99.6799H91.2501L90.6101 97.1299H45.7501H43.3301Z" fill="#231F20"/>
    <path d="M74.3998 90.48C72.7498 92.23 72.0498 93.24 71.4798 93.48C70.4799 93.9021 69.4267 94.1848 68.3498 94.32C67.2353 94.4746 66.1768 94.9042 65.2698 95.57C64.6098 96.07 64.0998 96.67 64.3398 97.26C64.8698 98.6 66.0398 96.65 68.0898 97.33C68.0898 97.33 64.9098 100.54 63.9898 101.5C62.7498 102.79 61.4298 106.75 64.6298 108.71C67.4898 110.46 70.0398 109.81 72.8398 106.99C74.3965 105.489 75.5783 103.642 76.2898 101.6C76.9198 99.9 78.3598 98.13 80.7398 96.16L74.3998 90.48Z" fill="#F2AA91"/>
    <path d="M7.83559 44.8934L13.8557 40.6419C14.4796 40.2013 15.2531 40.0266 16.0058 40.1562C16.7585 40.2858 17.429 40.7091 17.8696 41.3331L18.8964 42.787C19.2441 43.2794 19.4914 43.8354 19.6243 44.4234C19.7571 45.0113 19.7728 45.6197 19.6705 46.2137C19.5682 46.8077 19.35 47.3758 19.0281 47.8855C18.7063 48.3951 18.2872 48.8364 17.7949 49.1841L14.5765 51.457C13.5817 52.1466 12.3548 52.4153 11.1628 52.2047C9.97084 51.9941 8.91031 51.3211 8.21209 50.3324L7.18528 48.8784C6.74466 48.2545 6.56994 47.4811 6.69956 46.7283C6.82918 45.9756 7.25251 45.3051 7.87643 44.8645L7.83559 44.8934Z" fill="#F2AA91"/>
    <path d="M60.0802 39.1399C66.4922 39.1399 71.6902 33.9419 71.6902 27.5299C71.6902 21.1179 66.4922 15.9199 60.0802 15.9199C53.6682 15.9199 48.4702 21.1179 48.4702 27.5299C48.4702 33.9419 53.6682 39.1399 60.0802 39.1399Z" fill="#221F20"/>
    <path d="M49.9402 23.0799C49.9402 23.0799 46.5602 36.8899 50.0002 43.1699C53.4402 49.4499 58.1702 44.6299 58.1702 44.6299L57.2702 49.5599C57.2702 49.5599 60.0502 55.0499 62.1802 55.0499C62.1802 55.0499 67.0602 50.0499 69.4602 48.4399C69.4602 48.4399 67.2702 47.4399 67.4602 37.0299C67.4602 37.0299 72.2402 34.4199 69.6002 29.7499C66.7202 24.5099 64.3002 34.9999 64.3002 34.9999C64.3002 34.9999 63.6902 17.4499 49.9402 23.0799Z" fill="#F2AA91"/>
    <path d="M64.6802 20.7301C67.5576 20.7301 69.8902 18.3975 69.8902 15.5201C69.8902 12.6427 67.5576 10.3101 64.6802 10.3101C61.8028 10.3101 59.4702 12.6427 59.4702 15.5201C59.4702 18.3975 61.8028 20.7301 64.6802 20.7301Z" fill="#221F20"/>
    <path d="M71.3701 90.6C71.3701 90.6 78.3701 95.05 81.1001 99.44L84.8401 96L74.2801 87.71L71.3701 90.6Z" fill="#17AA83"/>
    <path d="M48.79 29.79C48.79 29.79 52.79 26.42 53.08 24.35C53.08 24.35 55.14 30.76 64.51 31.11L64 21.23L53.82 20L49.49 22.75L48.79 29.79Z" fill="#221F20"/>
    <path opacity="0.1" d="M76.0001 66.5L80.0001 76.5L71.3701 90.6L71.4601 90.65C75.0404 92.6095 78.1389 95.3424 80.5301 98.65L81.1001 99.43L89.3001 91.88" stroke="#231F20" stroke-miterlimit="10" stroke-linecap="round"/>
    <path opacity="0.1" d="M43.33 80.5199L42.54 68.6299" stroke="#231F20" stroke-miterlimit="10" stroke-linecap="round"/>
    <path opacity="0.1" d="M34.7202 64.97L36.3902 67.6" stroke="#231F20" stroke-miterlimit="10" stroke-linecap="round"/>
    <path d="M15.5698 23.8299L19.4798 27.8899L17.3198 22.6899L15.5698 23.8299Z" fill="#FF792F"/>
    <path d="M14.3501 28.4201L18.8501 28.8801L14.8301 26.8101L14.3501 28.4201Z" fill="#FF792F"/>
</svg>
    