<svg width="23" height="23" viewBox="0 0 23 23" fill="none"
    xmlns="http://www.w3.org/2000/svg">
    <path d="M11.2701 0C5.0428 0 0 5.04 0 11.25C0 17.46 5.0428 22.5 11.2701 22.5C17.5088 22.5 22.5628 17.46 22.5628 11.25C22.5628 5.04 17.5088 0 11.2701 0ZM7.33293 6.75C8.26928 6.75 9.02514 7.50375 9.02514 8.4375C9.02514 9.37125 8.26928 10.125 7.33293 10.125C6.39657 10.125 5.64071 9.37125 5.64071 8.4375C5.64071 7.50375 6.39657 6.75 7.33293 6.75ZM11.2814 18C8.70926 18 6.52066 16.1325 5.64071 13.5H16.9221C16.0422 16.1325 13.8536 18 11.2814 18ZM15.2299 10.125C14.2936 10.125 13.5377 9.37125 13.5377 8.4375C13.5377 7.50375 14.2936 6.75 15.2299 6.75C16.1663 6.75 16.9221 7.50375 16.9221 8.4375C16.9221 9.37125 16.1663 10.125 15.2299 10.125Z" fill="#17AA83"/>
</svg>
    