<svg width="32" height="32" viewBox="0 0 32 32" fill="none"
    xmlns="http://www.w3.org/2000/svg">
    <path d="M28.0045 6.64892L8.75997 4.83316C7.9352 4.75534 7.20352 5.36086 7.1257 6.18563L5.68568 21.4478C5.60787 22.2726 6.21338 23.0043 7.03815 23.0821L26.2827 24.8979C27.1074 24.9757 27.8391 24.3702 27.9169 23.5454L29.357 8.28319C29.4348 7.45842 28.8293 6.72674 28.0045 6.64892Z" fill="white"/>
    <path d="M26.4301 25.65H26.2101L7.00013 23.82C6.69949 23.7963 6.40688 23.7113 6.14032 23.5703C5.87375 23.4293 5.63887 23.2352 5.45013 23C5.0719 22.5412 4.88878 21.9524 4.94013 21.36L6.38013 6.12001C6.4457 5.53053 6.74038 4.99045 7.2006 4.61629C7.66081 4.24213 8.24967 4.06389 8.84013 4.12001L28.0801 5.90001C28.6696 5.96558 29.2097 6.26027 29.5838 6.72048C29.958 7.18069 30.1362 7.76955 30.0801 8.36001L28.6701 23.61C28.6156 24.1671 28.3564 24.6841 27.9426 25.0609C27.5288 25.4378 26.9898 25.6477 26.4301 25.65ZM26.3601 24.15C26.5576 24.1667 26.7536 24.1045 26.9054 23.9771C27.0572 23.8497 27.1523 23.6674 27.1701 23.47L28.6101 8.21001C28.6297 8.01249 28.5701 7.81527 28.4446 7.66157C28.319 7.50787 28.1376 7.41022 27.9401 7.39001L8.70013 5.58001C8.60162 5.56708 8.50147 5.57557 8.40655 5.60491C8.31163 5.63425 8.22416 5.68375 8.15013 5.75001C8.07146 5.81094 8.00669 5.88795 7.96013 5.97589C7.91357 6.06384 7.8863 6.1607 7.88013 6.26001L6.44013 21.51C6.43028 21.6084 6.44025 21.7078 6.46945 21.8022C6.49865 21.8967 6.54648 21.9843 6.61013 22.06C6.73691 22.2097 6.91544 22.3061 7.11013 22.33L26.3601 24.15Z" fill="#707070"/>
    <path d="M23.4599 8.84998H4.12988C3.30146 8.84998 2.62988 9.52155 2.62988 10.35V25.68C2.62988 26.5084 3.30146 27.18 4.12988 27.18H23.4599C24.2883 27.18 24.9599 26.5084 24.9599 25.68V10.35C24.9599 9.52155 24.2883 8.84998 23.4599 8.84998Z" fill="white"/>
    <path d="M23.4599 27.93H4.13988C3.54222 27.93 2.96889 27.6932 2.54535 27.2716C2.1218 26.8499 1.88253 26.2776 1.87988 25.68V10.35C1.88253 9.75232 2.1218 9.18005 2.54535 8.75837C2.96889 8.3367 3.54222 8.09997 4.13988 8.09998H23.4599C24.0575 8.09997 24.6309 8.3367 25.0544 8.75837C25.478 9.18005 25.7172 9.75232 25.7199 10.35V25.68C25.7172 26.2776 25.478 26.8499 25.0544 27.2716C24.6309 27.6932 24.0575 27.93 23.4599 27.93ZM4.13988 9.59998C3.94004 9.59996 3.74823 9.67865 3.60599 9.81903C3.46374 9.9594 3.38251 10.1501 3.37988 10.35V25.68C3.38251 25.8798 3.46374 26.0706 3.60599 26.2109C3.74823 26.3513 3.94004 26.43 4.13988 26.43H23.4599C23.6597 26.43 23.8515 26.3513 23.9938 26.2109C24.136 26.0706 24.2173 25.8798 24.2199 25.68V10.35C24.2173 10.1501 24.136 9.9594 23.9938 9.81903C23.8515 9.67865 23.6597 9.59996 23.4599 9.59998H4.13988Z" fill="#707070"/>
    <path d="M4.52979 21.12L9.71979 17.54C9.99335 17.3517 10.3177 17.2509 10.6498 17.2509C10.9819 17.2509 11.3062 17.3517 11.5798 17.54L17.9398 21.75C18.242 21.9537 18.6045 22.0487 18.9678 22.0197C19.3311 21.9906 19.6737 21.8391 19.9398 21.59L22.8798 19.16" fill="white"/>
    <path d="M18.8398 22.75C18.3711 22.7522 17.912 22.6166 17.5198 22.36L11.1698 18.14C11.0208 18.0435 10.8472 17.9922 10.6698 17.9922C10.4924 17.9922 10.3187 18.0435 10.1698 18.14L4.99978 21.74C4.83975 21.8399 4.64795 21.8758 4.46261 21.8406C4.27727 21.8054 4.11201 21.7016 3.99978 21.55C3.89502 21.3914 3.85626 21.1981 3.89174 21.0114C3.92722 20.8247 4.03414 20.6591 4.18978 20.55L9.36978 16.96C9.77042 16.6908 10.2421 16.5471 10.7248 16.5471C11.2074 16.5471 11.6791 16.6908 12.0798 16.96L18.4298 21.18C18.5931 21.2562 18.7761 21.2799 18.9534 21.2476C19.1308 21.2154 19.2937 21.1288 19.4198 21L22.4198 18.54C22.4959 18.4743 22.5843 18.4243 22.6798 18.3928C22.7753 18.3613 22.8761 18.3489 22.9763 18.3563C23.0766 18.3637 23.1745 18.3908 23.2643 18.4361C23.3541 18.4813 23.4341 18.5438 23.4998 18.62C23.5654 18.6961 23.6155 18.7845 23.647 18.88C23.6785 18.9755 23.6909 19.0763 23.6835 19.1765C23.676 19.2768 23.6489 19.3747 23.6037 19.4645C23.5584 19.5543 23.4959 19.6343 23.4198 19.7L20.4798 22.13C20.2609 22.3364 20.0032 22.4975 19.7218 22.6039C19.4403 22.7103 19.1405 22.76 18.8398 22.75Z" fill="#17AA83"/>
    <path d="M18.5999 16.9C19.942 16.9 21.0299 15.8121 21.0299 14.47C21.0299 13.128 19.942 12.04 18.5999 12.04C17.2579 12.04 16.1699 13.128 16.1699 14.47C16.1699 15.8121 17.2579 16.9 18.5999 16.9Z" fill="#17AA83"/>
</svg>
    