<svg width="20" height="19" viewBox="0 0 20 19" fill="none"
    xmlns="http://www.w3.org/2000/svg">
    <path d="M1.50135 0.10298L19.1708 8.55447C19.3492 8.63984 19.4998 8.77393 19.6052 8.94123C19.7106 9.10854 19.7665 9.30226 19.7665 9.5C19.7665 9.69774 19.7106 9.89146 19.6052 10.0588C19.4998 10.2261 19.3492 10.3602 19.1708 10.4455L1.50135 18.897C1.32014 18.9839 1.11778 19.0168 0.918376 18.9919C0.718972 18.967 0.530926 18.8853 0.376636 18.7566C0.222347 18.6278 0.108316 18.4574 0.0481263 18.2657C-0.0120636 18.074 -0.0158761 17.869 0.037143 17.6752L1.80493 11.1944C1.82657 11.115 1.87111 11.0437 1.933 10.9894C1.99488 10.9351 2.07138 10.9003 2.15295 10.8892L10.7151 9.726C10.7508 9.72099 10.7846 9.70686 10.8133 9.68497C10.8419 9.66309 10.8645 9.63418 10.8787 9.60105L10.8938 9.54822C10.9004 9.5014 10.891 9.45372 10.8671 9.41292C10.8432 9.37212 10.8062 9.3406 10.7621 9.32347L10.716 9.31089L2.16218 8.14858C2.08076 8.13733 2.00444 8.1024 1.94272 8.04813C1.88099 7.99385 1.83657 7.92264 1.81499 7.84333L0.037143 1.32483C-0.0158761 1.131 -0.0120636 0.926011 0.0481263 0.734283C0.108316 0.542556 0.222347 0.37217 0.376636 0.243419C0.530926 0.114667 0.718972 0.0329772 0.918376 0.00807831C1.11778 -0.0168206 1.32014 0.0161211 1.50135 0.10298Z" fill="white"/>
</svg>
    