<svg width="16" height="16" viewBox="0 0 16 16" fill="none"
    xmlns="http://www.w3.org/2000/svg">
    <path fill-rule="evenodd" clip-rule="evenodd" d="M15.7455 14.456L11.8091 10.5196C12.6914 9.36585 13.1665 8.00848 13.1665 6.58324C13.1665 4.88653 12.4878 3.18982 11.1983 1.90032C9.97667 0.610817 8.27996 0 6.58324 0C4.88653 0 3.18982 0.610817 1.90032 1.90032C0.610817 3.18982 0 4.88653 0 6.58324C0 8.27996 0.610817 9.97667 1.90032 11.1983C3.18982 12.4878 4.88653 13.1665 6.58324 13.1665C7.94061 13.1665 9.36585 12.6914 10.5196 11.8091L14.456 15.7455C14.7953 16.0848 15.4062 16.0848 15.7455 15.7455C16.0848 15.4062 16.0848 14.7953 15.7455 14.456ZM3.18983 3.18982C4.13999 2.23966 5.36162 1.76458 6.58325 1.76458C7.80488 1.76458 9.02652 2.23966 9.97668 3.18982C10.859 4.13998 11.334 5.36161 11.334 6.58324C11.334 7.80488 10.859 9.02651 9.97668 9.97667C9.02652 10.859 7.80488 11.334 6.58325 11.334C5.36162 11.334 4.13999 10.859 3.18983 9.97667C2.23967 9.02651 1.76459 7.80488 1.76459 6.58324C1.76459 5.36161 2.23967 4.13998 3.18983 3.18982Z" fill="#AFAFAF"/>
</svg>
    