<svg width="16" height="16" viewBox="0 0 16 16" fill="none"
    xmlns="http://www.w3.org/2000/svg">
    <path d="M8.00016 1.16675C8.55359 1.16671 9.08605 1.37845 9.48832 1.75853C9.89058 2.13861 10.1322 2.65821 10.1635 3.21075L10.1668 3.33341H13.6668C13.7935 3.33345 13.9155 3.38158 14.008 3.46806C14.1006 3.55455 14.1569 3.67295 14.1655 3.79934C14.1741 3.92572 14.1345 4.05068 14.0545 4.14895C13.9746 4.24722 13.8603 4.31148 13.7348 4.32875L13.6668 4.33341H13.1362L12.2828 13.0134C12.2401 13.4462 12.0449 13.8496 11.7322 14.1517C11.4194 14.4538 11.0095 14.635 10.5755 14.6627L10.4582 14.6667H5.54216C5.10714 14.6667 4.68629 14.512 4.35483 14.2303C4.02338 13.9485 3.80291 13.5581 3.73283 13.1287L3.7175 13.0127L2.8635 4.33341H2.3335C2.21267 4.33341 2.09593 4.28965 2.00488 4.21024C1.91382 4.13082 1.85459 4.02112 1.83816 3.90141L1.8335 3.83341C1.8335 3.71259 1.87726 3.59585 1.95667 3.50479C2.03609 3.41374 2.14579 3.35451 2.2655 3.33808L2.3335 3.33341H5.8335C5.8335 2.75878 6.06177 2.20768 6.4681 1.80135C6.87443 1.39502 7.42553 1.16675 8.00016 1.16675ZM12.1315 4.33341H3.86816L4.71283 12.9147C4.73153 13.1062 4.81591 13.2853 4.95165 13.4217C5.08738 13.558 5.26611 13.6432 5.4575 13.6627L5.54216 13.6667H10.4582C10.8582 13.6667 11.1975 13.3834 11.2748 12.9987L11.2882 12.9147L12.1308 4.33341H12.1315ZM9.16683 6.16675C9.28765 6.16675 9.40439 6.21051 9.49545 6.28993C9.58651 6.36934 9.64573 6.47905 9.66216 6.59875L9.66683 6.66675V11.3334C9.66679 11.4601 9.61867 11.582 9.53218 11.6746C9.4457 11.7672 9.3273 11.8235 9.20091 11.8321C9.07452 11.8407 8.94957 11.8011 8.8513 11.7211C8.75303 11.6412 8.68876 11.5269 8.6715 11.4014L8.66683 11.3334V6.66675C8.66683 6.53414 8.71951 6.40696 8.81328 6.3132C8.90704 6.21943 9.03422 6.16675 9.16683 6.16675ZM6.8335 6.16675C6.95432 6.16675 7.07106 6.21051 7.16212 6.28993C7.25318 6.36934 7.3124 6.47905 7.32883 6.59875L7.3335 6.66675V11.3334C7.33346 11.4601 7.28533 11.582 7.19885 11.6746C7.11236 11.7672 6.99396 11.8235 6.86758 11.8321C6.74119 11.8407 6.61623 11.8011 6.51796 11.7211C6.41969 11.6412 6.35543 11.5269 6.33816 11.4014L6.3335 11.3334V6.66675C6.3335 6.53414 6.38617 6.40696 6.47994 6.3132C6.57371 6.21943 6.70089 6.16675 6.8335 6.16675ZM8.00016 2.16675C7.70737 2.16676 7.42528 2.27686 7.2099 2.4752C6.99452 2.67354 6.86159 2.94561 6.8375 3.23741L6.8335 3.33341H9.16683C9.16683 3.024 9.04391 2.72725 8.82512 2.50846C8.60633 2.28966 8.30958 2.16675 8.00016 2.16675Z" fill="#AFAFAF" stroke="#AFAFAF" stroke-width="0.3"/>
</svg>
    