<svg width="34" height="34" viewBox="0 0 34 34" fill="none"
    xmlns="http://www.w3.org/2000/svg">
    <g clip-path="url(#clip0)">
        <circle cx="17.6777" cy="16.9705" r="8.5" transform="rotate(45 17.6777 16.9705)" fill="white"/>
        <path d="M24.0418 9.89944C22.6432 8.50092 20.8614 7.54851 18.9216 7.16266C16.9818 6.7768 14.9711 6.97484 13.1439 7.73171C11.3166 8.48859 9.75482 9.77031 8.65601 11.4148C7.5572 13.0593 6.97071 14.9927 6.97071 16.9705C6.97071 18.9483 7.5572 20.8817 8.65601 22.5262C9.75482 24.1707 11.3166 25.4524 13.1439 26.2093C14.9711 26.9662 16.9818 27.1642 18.9216 26.7784C20.8614 26.3925 22.6432 25.4401 24.0418 24.0416C24.9704 23.113 25.707 22.0106 26.2095 20.7973C26.712 19.5841 26.9707 18.2837 26.9707 16.9705C26.9707 15.6573 26.712 14.3569 26.2095 13.1437C25.707 11.9304 24.9704 10.828 24.0418 9.89944ZM17.9748 19.7989C17.9753 19.9309 17.9497 20.0618 17.8995 20.1838C17.8492 20.3059 17.7753 20.4168 17.6819 20.5101C17.5886 20.6035 17.4777 20.6774 17.3556 20.7277C17.2335 20.778 17.1027 20.8036 16.9707 20.803C16.8387 20.8036 16.7079 20.778 16.5858 20.7277C16.4638 20.6774 16.3528 20.6035 16.2595 20.5101C16.1662 20.4168 16.0922 20.3059 16.0419 20.1838C15.9917 20.0618 15.9661 19.9309 15.9666 19.7989L15.9737 17.9675L14.1423 17.9746C14.0103 17.9751 13.8795 17.9495 13.7574 17.8993C13.6353 17.849 13.5244 17.7751 13.4311 17.6817C13.3377 17.5884 13.2638 17.4775 13.2135 17.3554C13.1632 17.2333 13.1376 17.1025 13.1382 16.9705C13.1376 16.8385 13.1632 16.7077 13.2135 16.5856C13.2638 16.4636 13.3377 16.3526 13.4311 16.2593C13.5244 16.166 13.6353 16.092 13.7574 16.0417C13.8795 15.9915 14.0103 15.9659 14.1423 15.9664L15.9737 15.9735L15.9666 14.1421C15.9666 13.8758 16.0724 13.6204 16.2607 13.4321C16.449 13.2438 16.7044 13.138 16.9707 13.138C17.237 13.138 17.4924 13.2438 17.6807 13.4321C17.869 13.6204 17.9748 13.8758 17.9748 14.1421L17.9677 15.9735L19.7991 15.9664C20.0654 15.9664 20.3208 16.0722 20.5091 16.2605C20.6974 16.4488 20.8032 16.7042 20.8032 16.9705C20.8032 17.2368 20.6974 17.4922 20.5091 17.6805C20.3208 17.8688 20.0654 17.9746 19.7991 17.9746L17.9677 17.9675L17.9748 19.7989Z" fill="#17AA83"/>
    </g>
    <defs>
        <clipPath id="clip0">
            <rect width="24" height="24" fill="white" transform="translate(16.9707) rotate(45)"/>
        </clipPath>
    </defs>
</svg>
    