<svg width="32" height="32" viewBox="0 0 32 32" fill="none"
    xmlns="http://www.w3.org/2000/svg">
    <path d="M1.99994 11.62H29.9999V25.56C29.9999 25.8252 29.8946 26.0796 29.707 26.2671C29.5195 26.4546 29.2652 26.56 28.9999 26.56H2.93994C2.67472 26.56 2.42037 26.4546 2.23283 26.2671C2.0453 26.0796 1.93994 25.8252 1.93994 25.56V11.62H1.99994Z" fill="white"/>
    <path d="M29.07 27.26H2.93998C2.48819 27.26 2.05475 27.0812 1.73435 26.7627C1.41395 26.4442 1.23262 26.0118 1.22998 25.56V11.62C1.22994 11.5198 1.24999 11.4206 1.28892 11.3283C1.32786 11.236 1.3849 11.1524 1.45667 11.0825C1.52845 11.0126 1.61351 10.9578 1.70682 10.9213C1.80014 10.8848 1.89982 10.8673 1.99998 10.87H30C30.1989 10.87 30.3897 10.949 30.5303 11.0897C30.671 11.2303 30.75 11.4211 30.75 11.62V25.56C30.75 26.0074 30.5737 26.4368 30.2592 26.7551C29.9447 27.0733 29.5174 27.2548 29.07 27.26ZM2.72998 12.37V25.56C2.72995 25.5871 2.73543 25.614 2.7461 25.6389C2.75677 25.6639 2.77241 25.6864 2.79205 25.7051C2.81169 25.7238 2.83494 25.7383 2.86037 25.7478C2.8858 25.7572 2.91289 25.7614 2.93998 25.76H29.07C29.123 25.76 29.1739 25.7389 29.2114 25.7014C29.2489 25.6639 29.27 25.6131 29.27 25.56V12.37H2.72998Z" fill="#707070"/>
    <path d="M19.1101 17.12L16.1301 15.74L12.8901 17.12V11.62H19.1101V17.12Z" fill="white"/>
    <path d="M19.1101 17.87C18.9995 17.8719 18.8899 17.848 18.7901 17.8L16.1201 16.56L13.1901 17.81C13.0755 17.8571 12.9514 17.8762 12.8279 17.8658C12.7044 17.8554 12.5852 17.8157 12.4801 17.75C12.3767 17.6804 12.2917 17.5867 12.2325 17.4769C12.1732 17.3672 12.1416 17.2447 12.1401 17.12V11.62C12.1401 11.4211 12.2192 11.2303 12.3598 11.0897C12.5005 10.949 12.6912 10.87 12.8901 10.87H19.1101C19.309 10.87 19.4998 10.949 19.6405 11.0897C19.7811 11.2303 19.8601 11.4211 19.8601 11.62V17.12C19.8603 17.2461 19.8283 17.3702 19.767 17.4805C19.7058 17.5907 19.6173 17.6835 19.5101 17.75C19.3916 17.8286 19.2524 17.8704 19.1101 17.87ZM13.6401 12.37V16L15.8401 15.07C15.9356 15.0253 16.0397 15.0022 16.1451 15.0022C16.2505 15.0022 16.3547 15.0253 16.4501 15.07L18.3601 15.95V12.37H13.6401Z" fill="#707070"/>
    <path d="M30 11.62H2L5.52 6.00003C5.62656 5.83126 5.7742 5.69228 5.94908 5.59609C6.12397 5.4999 6.3204 5.44965 6.52 5.45003H25.52C25.72 5.44774 25.9171 5.49717 26.0923 5.59354C26.2675 5.68991 26.4149 5.82993 26.52 6.00003L30 11.62Z" fill="white"/>
    <path d="M30.0001 12.37H2.00012C1.86533 12.3752 1.73166 12.3435 1.61357 12.2783C1.49549 12.2131 1.39747 12.1169 1.33012 12C1.25924 11.8859 1.22168 11.7543 1.22168 11.62C1.22168 11.4857 1.25924 11.3541 1.33012 11.24L4.89012 5.62998C5.06505 5.35652 5.30612 5.1316 5.59104 4.97603C5.87595 4.82047 6.19551 4.73928 6.52012 4.73998H25.5201C25.8453 4.73645 26.1659 4.81643 26.4513 4.97226C26.7367 5.12809 26.9773 5.35455 27.1501 5.62998L30.6901 11.22C30.7589 11.3348 30.7951 11.4661 30.7951 11.6C30.7951 11.7338 30.7589 11.8651 30.6901 11.98C30.6213 12.1014 30.5207 12.2019 30.3992 12.2706C30.2776 12.3393 30.1397 12.3736 30.0001 12.37ZM3.35012 10.87H28.6601L25.8401 6.43998C25.8039 6.37713 25.7513 6.32532 25.6878 6.29009C25.6244 6.25486 25.5526 6.23754 25.4801 6.23998H6.48012C6.40781 6.2386 6.33642 6.25638 6.27319 6.2915C6.20997 6.32663 6.15716 6.37785 6.12012 6.43998L3.35012 10.87Z" fill="#707070"/>
    <path d="M18.0701 5.48999H13.9301L12.8901 11.62H19.1101L18.0701 5.48999Z" fill="white"/>
    <path d="M19.1098 12.3701H12.8898C12.781 12.3688 12.6738 12.3439 12.5757 12.2971C12.4775 12.2503 12.3906 12.1827 12.3212 12.099C12.2518 12.0152 12.2013 11.9174 12.1735 11.8123C12.1456 11.7071 12.1409 11.5972 12.1598 11.4901L13.1598 5.36006C13.1904 5.18613 13.2814 5.02858 13.4168 4.91516C13.5521 4.80175 13.7232 4.73974 13.8998 4.74005H18.0398C18.2169 4.73771 18.389 4.79899 18.5248 4.91277C18.6606 5.02654 18.7511 5.18525 18.7798 5.36006L19.7798 11.4901C19.7951 11.598 19.7878 11.7079 19.7586 11.8128C19.7293 11.9178 19.6787 12.0156 19.6098 12.1001C19.5484 12.1758 19.4726 12.2386 19.3867 12.285C19.3009 12.3313 19.2068 12.3602 19.1098 12.3701ZM13.7798 10.8701H18.2198L17.4398 6.24005H14.5698L13.7798 10.8701Z" fill="#707070"/>
    <path d="M27.2201 21.01H21.8301C21.5429 21.01 21.3101 21.2428 21.3101 21.53V23.82C21.3101 24.1072 21.5429 24.34 21.8301 24.34H27.2201C27.5072 24.34 27.7401 24.1072 27.7401 23.82V21.53C27.7401 21.2428 27.5072 21.01 27.2201 21.01Z" fill="#17AA83"/>
</svg>
    