<svg width="30" height="7" viewBox="0 0 30 7" fill="none"
    xmlns="http://www.w3.org/2000/svg">
    <path d="M3.39321 0C1.53347 0 0 1.51286 0 3.3476C0 5.18234 1.53347 6.69519 3.39321 6.69519C5.25295 6.69519 6.78642 5.18234 6.78642 3.3476C6.78642 1.51286 5.25295 0 3.39321 0ZM3.39321 4.66732C2.64279 4.66732 2.0555 4.08793 2.0555 3.3476C2.0555 2.60726 2.64279 2.02787 3.39321 2.02787C4.14363 2.02787 4.73092 2.60726 4.73092 3.3476C4.73092 4.05574 4.111 4.66732 3.39321 4.66732Z" fill="#AFAFAF"/>
    <path d="M13.5001 0C11.6404 0 10.1069 1.51286 10.1069 3.3476C10.1069 5.18234 11.6404 6.69519 13.5001 6.69519C15.3599 6.69519 16.8934 5.18234 16.8934 3.3476C16.8934 1.51286 15.3599 0 13.5001 0ZM13.5001 4.66732C12.7497 4.66732 12.1624 4.08793 12.1624 3.3476C12.1624 2.60726 12.7497 2.02787 13.5001 2.02787C14.2506 2.02787 14.8379 2.60726 14.8379 3.3476C14.8379 4.05574 14.2179 4.66732 13.5001 4.66732Z" fill="#AFAFAF"/>
    <path d="M23.6066 0C21.7468 0 20.2134 1.51286 20.2134 3.3476C20.2134 5.18234 21.7468 6.69519 23.6066 6.69519C25.4663 6.69519 26.9998 5.18234 26.9998 3.3476C26.9998 1.51286 25.4663 0 23.6066 0ZM23.6066 4.66732C22.8562 4.66732 22.2689 4.08793 22.2689 3.3476C22.2689 2.60726 22.8562 2.02787 23.6066 2.02787C24.357 2.02787 24.9443 2.60726 24.9443 3.3476C24.9443 4.05574 24.3244 4.66732 23.6066 4.66732Z" fill="#AFAFAF"/>
</svg>
    