<svg width="32" height="32" viewBox="0 0 32 32" fill="none"
    xmlns="http://www.w3.org/2000/svg">
    <path d="M26.9 8.32996H20L19.21 5.32996H12.76L11.97 8.32996H5.10002C4.68098 8.32996 4.2791 8.49642 3.98279 8.79273C3.68648 9.08904 3.52002 9.49091 3.52002 9.90996V25.06C3.52001 25.4799 3.68616 25.8828 3.98218 26.1807C4.2782 26.4786 4.68006 26.6473 5.10002 26.65H26.9C27.3217 26.65 27.7261 26.4824 28.0243 26.1843C28.3225 25.8861 28.49 25.4816 28.49 25.06V9.90996C28.4874 9.49 28.3187 9.08814 28.0208 8.79212C27.7229 8.49609 27.32 8.32995 26.9 8.32996Z" fill="white"/>
    <path d="M26.9 27.4H5.10004C4.79322 27.4 4.48942 27.3394 4.20607 27.2217C3.92273 27.1039 3.66543 26.9314 3.44894 26.714C3.23244 26.4966 3.06103 26.2385 2.94452 25.9547C2.82802 25.6709 2.76872 25.3668 2.77004 25.06V9.90998C2.77004 9.29202 3.01552 8.69938 3.45248 8.26242C3.88944 7.82546 4.48209 7.57998 5.10004 7.57998H11.4L12 5.15998C12.0438 4.99966 12.1388 4.8581 12.2707 4.75696C12.4025 4.65582 12.5639 4.60068 12.73 4.59998H19.21C19.3762 4.60068 19.5376 4.65582 19.6694 4.75696C19.8013 4.8581 19.8963 4.99966 19.94 5.15998L20.58 7.57998H26.9C27.2069 7.57866 27.5109 7.63795 27.7948 7.75446C28.0786 7.87096 28.3366 8.04238 28.5541 8.25887C28.7715 8.47536 28.944 8.73267 29.0617 9.01601C29.1794 9.29935 29.24 9.60315 29.24 9.90998V25.06C29.24 25.6806 28.9935 26.2758 28.5547 26.7146C28.1158 27.1534 27.5206 27.4 26.9 27.4ZM5.10004 9.07998C4.87991 9.07998 4.6688 9.16742 4.51314 9.32308C4.35749 9.47873 4.27004 9.68985 4.27004 9.90998V25.06C4.27003 25.281 4.35715 25.4932 4.51253 25.6504C4.6679 25.8077 4.879 25.8973 5.10004 25.9H26.9C27.122 25.8974 27.3342 25.808 27.4911 25.6511C27.6481 25.4941 27.7374 25.2819 27.74 25.06V9.90998C27.7374 9.68893 27.6477 9.47783 27.4905 9.32246C27.3333 9.16709 27.1211 9.07996 26.9 9.07998H20C19.8347 9.08047 19.674 9.0256 19.5435 8.9241C19.413 8.8226 19.3203 8.68033 19.28 8.51998L18.67 6.09998H13.34L12.7 8.51998C12.6563 8.68029 12.5613 8.82185 12.4294 8.92299C12.2976 9.02413 12.1362 9.07927 11.97 9.07998H5.10004Z" fill="#707070"/>
    <path d="M16 24.54C19.6009 24.54 22.52 21.6209 22.52 18.02C22.52 14.4191 19.6009 11.5 16 11.5C12.3991 11.5 9.47998 14.4191 9.47998 18.02C9.47998 21.6209 12.3991 24.54 16 24.54Z" fill="white"/>
    <path d="M16.0002 25.29C14.5608 25.29 13.1537 24.8633 11.9567 24.0638C10.7597 23.2643 9.82663 22.1279 9.27533 20.7982C8.72403 19.4686 8.57928 18.0053 8.85937 16.5934C9.13946 15.1815 9.83182 13.8843 10.8489 12.8658C11.8661 11.8473 13.1623 11.1531 14.5738 10.8711C15.9854 10.5891 17.4488 10.7318 18.7792 11.2813C20.1096 11.8307 21.2473 12.7623 22.0485 13.9582C22.8496 15.154 23.2782 16.5606 23.2802 18C23.2815 18.9568 23.0942 19.9046 22.7289 20.789C22.3637 21.6734 21.8276 22.4771 21.1515 23.1542C20.4753 23.8313 19.6724 24.3684 18.7885 24.7349C17.9046 25.1014 16.9571 25.29 16.0002 25.29ZM16.0002 12.29C14.8541 12.2901 13.7338 12.6309 12.7819 13.2692C11.8299 13.9074 11.0892 14.8143 10.6538 15.8745C10.2185 16.9348 10.1082 18.1005 10.3369 19.2236C10.5657 20.3467 11.1232 21.3764 11.9385 22.1819C12.7539 22.9874 13.7903 23.5323 14.9161 23.7473C16.0419 23.9624 17.2062 23.8379 18.2611 23.3897C19.3159 22.9414 20.2137 22.1897 20.8403 21.23C21.4669 20.2703 21.7941 19.146 21.7802 18C21.7749 16.4705 21.1636 15.0055 20.0802 13.9258C18.9968 12.8462 17.5297 12.24 16.0002 12.24V12.29Z" fill="#707070"/>
    <path d="M16.0002 21.57C17.9608 21.57 19.5502 19.9806 19.5502 18.02C19.5502 16.0594 17.9608 14.47 16.0002 14.47C14.0396 14.47 12.4502 16.0594 12.4502 18.02C12.4502 19.9806 14.0396 21.57 16.0002 21.57Z" fill="white"/>
    <path d="M16.0002 22.31C15.1502 22.31 14.3192 22.058 13.6123 21.586C12.9054 21.1139 12.3542 20.4429 12.0285 19.6578C11.7027 18.8727 11.617 18.0086 11.7821 17.1747C11.9472 16.3409 12.3557 15.5747 12.9561 14.9729C13.5565 14.3712 14.3217 13.9609 15.1552 13.7938C15.9886 13.6268 16.8529 13.7105 17.6388 14.0344C18.4247 14.3583 19.097 14.9079 19.5706 15.6137C20.0443 16.3196 20.2982 17.1499 20.3002 18C20.3015 18.5655 20.1912 19.1257 19.9757 19.6486C19.7602 20.1714 19.4437 20.6466 19.0443 21.047C18.6449 21.4473 18.1704 21.765 17.648 21.9817C17.1257 22.1984 16.5657 22.31 16.0002 22.31ZM16.0002 15.22C15.4455 15.22 14.9034 15.3847 14.4425 15.6933C13.9816 16.0018 13.6228 16.4403 13.4115 16.9531C13.2001 17.4659 13.1459 18.0299 13.2555 18.5736C13.3652 19.1173 13.6339 19.6162 14.0275 20.0069C14.4211 20.3977 14.9218 20.6628 15.4663 20.7686C16.0108 20.8743 16.5744 20.816 17.0856 20.601C17.5969 20.386 18.0328 20.0241 18.3381 19.561C18.6433 19.0979 18.8041 18.5546 18.8002 18C18.7949 17.2608 18.4976 16.5538 17.973 16.033C17.4485 15.5122 16.7393 15.2199 16.0002 15.22Z" fill="#707070"/>
    <path d="M7.51004 5.34998H8.61004C8.85669 5.34998 9.09324 5.44796 9.26765 5.62237C9.44206 5.79678 9.54004 6.03332 9.54004 6.27998V8.27998H6.54004V6.27998C6.54004 6.03332 6.63802 5.79678 6.81243 5.62237C6.98684 5.44796 7.22339 5.34998 7.47004 5.34998H7.51004Z" fill="white"/>
    <path d="M9.54003 9.08001H6.54003C6.34192 9.07742 6.15266 8.99757 6.01256 8.85747C5.87247 8.71738 5.79262 8.52811 5.79003 8.33001V6.33001C5.7846 6.10218 5.8253 5.87561 5.90969 5.66392C5.99408 5.45223 6.12041 5.2598 6.28108 5.09819C6.44176 4.93658 6.63346 4.80914 6.84465 4.72352C7.05585 4.63791 7.28218 4.5959 7.51003 4.60001H8.61003C9.05651 4.60265 9.48381 4.78187 9.79858 5.09852C10.1134 5.41517 10.29 5.84352 10.29 6.29001V8.29001C10.2955 8.39181 10.2801 8.49366 10.2448 8.58932C10.2096 8.68498 10.1552 8.77245 10.085 8.84639C10.0148 8.92033 9.9303 8.97918 9.83659 9.01934C9.74289 9.05951 9.64198 9.08015 9.54003 9.08001ZM7.32003 7.58001H8.79003V6.29001C8.79139 6.26554 8.78774 6.24106 8.77931 6.21805C8.77088 6.19504 8.75783 6.174 8.74098 6.15621C8.72413 6.13842 8.70382 6.12426 8.6813 6.1146C8.65879 6.10493 8.63453 6.09997 8.61003 6.10001H7.51003C7.4847 6.09856 7.45935 6.10248 7.43564 6.11151C7.41193 6.12055 7.3904 6.13449 7.37246 6.15243C7.35452 6.17037 7.34057 6.19191 7.33154 6.21561C7.3225 6.23932 7.31858 6.26468 7.32003 6.29001V7.58001Z" fill="#707070"/>
    <path d="M9.78982 11.55H6.56982C6.37091 11.55 6.18015 11.471 6.03949 11.3304C5.89884 11.1897 5.81982 10.999 5.81982 10.8C5.81982 10.6011 5.89884 10.4104 6.03949 10.2697C6.18015 10.1291 6.37091 10.05 6.56982 10.05H9.78982C9.98874 10.05 10.1795 10.1291 10.3202 10.2697C10.4608 10.4104 10.5398 10.6011 10.5398 10.8C10.5398 10.999 10.4608 11.1897 10.3202 11.3304C10.1795 11.471 9.98874 11.55 9.78982 11.55Z" fill="#17AA83"/>
    <path d="M24.79 11.55C24.6903 11.5495 24.5917 11.5291 24.5 11.49C24.319 11.4149 24.1751 11.2711 24.1 11.09C24.0462 11.0017 24.0121 10.9028 24 10.8C24.0005 10.7003 24.0209 10.6017 24.06 10.51C24.0979 10.4208 24.1522 10.3394 24.22 10.27C24.3254 10.165 24.4596 10.0938 24.6057 10.0653C24.7517 10.0368 24.9029 10.0524 25.04 10.11C25.1293 10.148 25.2106 10.2022 25.28 10.27C25.3512 10.3366 25.4059 10.4187 25.44 10.51C25.4791 10.6017 25.4995 10.7003 25.5 10.8C25.5003 10.8998 25.4799 10.9986 25.44 11.09C25.3649 11.2711 25.221 11.4149 25.04 11.49C24.9609 11.5249 24.8763 11.5452 24.79 11.55Z" fill="#17AA83"/>
</svg>
    